<svg xmlns="http://www.w3.org/2000/svg" width="64" height="64" viewBox="0 0 48 48"><linearGradient id="a" x1="39.563" x2="39.563" y1="10" y2="53.832" gradientTransform="matrix(.91004 0 0 .91786 -5.155 -5.202)" gradientUnits="userSpaceOnUse"><stop offset="0" stop-color="#e6abff"/><stop offset="1" stop-color="#6dc7ff"/></linearGradient><path fill="url(#a)" d="M23.966 3.977c-.226 0-.447.026-.67.033a10.78 10.78 0 0 0-5.586 9.432c0 1.74.4 3.4 1.187 4.933.961 1.869 2.587 3.423 4.704 4.498l1.525.774c2.355 1.193 4.17 2.938 5.252 5.044a12.087 12.087 0 0 1 1.329 5.513c0 4.112-2.105 7.833-5.358 10.004 9.919-1.194 17.639-9.717 17.639-20.038 0-11.134-8.982-20.193-20.022-20.193zm18.197 24.575c.041.064-.059.142-.104.071-.971-1.17-2.526-2.308-3.516-3.957a.448.448 0 0 1 .17-.64c1.27-.686 1.494-.561 2.772-1.118-1.251-1.262-2.549-1.716-4.606-2.238-.404-.085-.635-.425-.702-.8a12.856 12.856 0 0 0-.59-1.65c-1.778-3.624-3.994-8.362-8.491-8.718a1.118 1.118 0 0 1-.777-.324c-.566-.545-1.36-1.22-2.089-1.332-.144.014-.071-.035-.183.068-.291.344-.233.357-.033.795.27.465.787.999 1.293 1.525.514.67.157 1.65.495 2.403.139.534.43 1.164.754 1.55a.858.858 0 0 1 .156.695c-.36 1.737-.615 3.611-.266 5.353.007.185.187.255.32.188.041-.033.04-.01.2-.294.197-.441 1.598-3.144 2.003-2.269.592 1.941 1.415 5.717 3.157 6.885.073.031.016.154-.057.112-1.82-.948-3.292-3.385-3.727-5.028-.337.03-.64.306-.81.622-.257.908-1.577.955-1.814-.016a7.654 7.654 0 0 1-.21-1.142c-.139-1.4-.05-3.475.265-4.52-.881-.96-1.375-2.811-1.258-3.78-.517-.528-1.06-1.047-1.464-1.697-.761-.976-.096-2.69 1.21-2.628 1.157.097 2.092.892 2.916 1.642.912-.082 2.719.56 3.732 1.25 2.295 1.504 3.503 4.085 4.814 6.41.511 1.056 1.429 2.84 1.405 3.691 2.335.73 4.974 1.612 6.306 3.844a.08.08 0 0 1-.048.115l-3.629 1.148zM28.82 12.656l-1.042-1.5c2.233-.2 1.042 1.502 1.042 1.5z" style="fill:url(#a);stroke-width:.913942"/><linearGradient id="b" x1="24.565" x2="24.565" y1="10.318" y2="53.964" gradientTransform="matrix(.91004 0 0 .91786 -5.155 -5.202)" gradientUnits="userSpaceOnUse"><stop offset="0" stop-color="#6dc7ff"/><stop offset="1" stop-color="#e6abff"/></linearGradient><path fill="url(#b)" d="M29.268 29.271c-.961-1.868-2.588-3.423-4.704-4.498l-1.525-.774c-2.354-1.193-4.17-2.938-5.252-5.044a12.092 12.092 0 0 1-1.329-5.513c0-3.627 1.638-6.949 4.255-9.174C11.218 5.843 3.944 14.156 3.944 24.17c0 10.911 8.631 19.807 19.365 20.16 4.206-1.474 7.147-5.527 7.147-10.128 0-1.74-.4-3.4-1.188-4.931zm-5.325 11.895c-1.156-.097-2.092-.892-2.915-1.642-.912.082-2.72-.56-3.732-1.25-2.295-1.504-3.502-4.085-4.814-6.41-.511-1.056-1.428-2.84-1.405-3.69-2.335-.73-4.974-1.613-6.305-3.845a.08.08 0 0 1 .047-.115l3.63-1.148-2.405-3.786c-.041-.06.059-.138.104-.068.971 1.17 2.526 2.309 3.516 3.957a.448.448 0 0 1-.17.64c-1.27.685-1.492.56-2.771 1.118 1.251 1.262 2.549 1.716 4.606 2.238.403.085.635.425.702.8.11.408.344 1.099.59 1.65 1.778 3.624 3.994 8.362 8.491 8.718.297.004.58.125.776.324.567.545 1.361 1.22 2.09 1.332.144-.014.07.035.183-.068.291-.344.233-.357.033-.795-.27-.465-.786-.999-1.293-1.525-.514-.67-.157-1.65-.495-2.402-.139-.535-.43-1.165-.754-1.552a.855.855 0 0 1-.156-.694c.36-1.737.615-3.611.266-5.353-.007-.185-.187-.255-.32-.188-.041.033-.04.01-.2.294-.198.44-1.599 3.143-2.005 2.267-.592-1.941-1.415-5.717-3.156-6.885-.074-.031-.017-.154.056-.112 1.82.948 3.293 3.385 3.727 5.028.337-.029.64-.305.81-.622.257-.908 1.578-.955 1.813.017.096.376.173.757.21 1.141.139 1.401.05 3.475-.264 4.52.88.96 1.374 2.811 1.257 3.78.517.528 1.06 1.047 1.465 1.697.76.977.093 2.691-1.212 2.63zm-4.555-5.988 1.042 1.501c-2.233.201-1.041-1.5-1.042-1.5z" style="fill:url(#b);stroke-width:.913942"/><linearGradient id="c" x1="32" x2="32" y1="-584" y2="-636" gradientTransform="matrix(.91004 0 0 -.91786 -5.155 -535.726)" gradientUnits="userSpaceOnUse"><stop offset="0" stop-color="#1a6dff"/><stop offset="1" stop-color="#c822ff"/></linearGradient><path fill="url(#c)" d="M23.966 48.034C10.92 48.034.306 37.329.306 24.169.305 11.01 10.918.305 23.965.305S47.627 11.01 47.627 24.17c0 13.16-10.614 23.865-23.66 23.865zm0-45.893c-12.042 0-21.84 9.882-21.84 22.028 0 12.147 9.798 22.03 21.84 22.03 12.043 0 21.841-9.883 21.841-22.03 0-12.146-9.798-22.028-21.84-22.028z" style="fill:url(#c);stroke-width:.913942"/></svg>