<svg xmlns="http://www.w3.org/2000/svg" width="64" height="64" viewBox="0 0 48 48"><linearGradient id="a" x1="29" x2="29" y1="28" y2="36" gradientTransform="matrix(.74496 0 0 .64407 .255 9.966)" gradientUnits="userSpaceOnUse" spreadMethod="reflect"><stop offset="0" stop-color="#1a6dff"/><stop offset="1" stop-color="#c822ff"/></linearGradient><path fill="url(#a)" d="M20.928 31.435h2.57l-1.64-2.576-2.715 4.294h-1.009l3.114-4.84a.737.737 0 0 1 .61-.313c.243 0 .469.114.6.306l3.126 4.847h-.99l-.55-.859H21.86z" style="fill:url(#a);stroke-width:.692677"/><linearGradient id="b" x1="50" x2="50" y1="28" y2="35.999" gradientTransform="matrix(.74496 0 0 .64407 .255 9.966)" gradientUnits="userSpaceOnUse" spreadMethod="reflect"><stop offset="0" stop-color="#1a6dff"/><stop offset="1" stop-color="#c822ff"/></linearGradient><path fill="url(#b)" d="M35.516 32.294V28h-.993v4.659c0 .126.057.25.167.345a.64.64 0 0 0 .418.147h4.38l.995-.858h-4.967z" style="fill:url(#b);stroke-width:.692677"/><linearGradient id="c" x1="18.5" x2="18.5" y1="28" y2="36" gradientTransform="matrix(.74496 0 0 .64407 .255 9.966)" gradientUnits="userSpaceOnUse" spreadMethod="reflect"><stop offset="0" stop-color="#1a6dff"/><stop offset="1" stop-color="#c822ff"/></linearGradient><path fill="url(#c)" d="M15.52 31.435c1.073 0 1.869-.73 1.869-1.692S16.593 28 15.521 28h-4.837v5.153h.958v-4.294h3.805c.513 0 .985.424.985.884s-.472.835-.985.835l-2.847-.002 3.453 2.577h1.336l-2.373-1.718z" style="fill:url(#c);stroke-width:.692677"/><linearGradient id="d" x1="7" x2="7" y1="28" y2="36" gradientTransform="matrix(.74496 0 0 .64407 .255 9.966)" gradientUnits="userSpaceOnUse" spreadMethod="reflect"><stop offset="0" stop-color="#1a6dff"/><stop offset="1" stop-color="#c822ff"/></linearGradient><path fill="url(#d)" d="M6.96 28H3.98C2.336 28 1 29.226 1 30.648c0 1.422 1.335 2.505 2.98 2.505h2.98c1.645 0 2.98-1.152 2.98-2.575C9.94 29.155 8.604 28 6.96 28Zm.018 4.294H3.961c-1.087 0-1.967-.767-1.967-1.716s.881-1.719 1.967-1.719H6.98c1.087 0 1.966.771 1.966 1.72 0 .947-.88 1.715-1.968 1.715z" style="fill:url(#d);stroke-width:.692677"/><linearGradient id="e" x1="7" x2="7" y1="29.33" y2="34.67" gradientTransform="matrix(.74496 0 0 .64407 .255 9.966)" gradientUnits="userSpaceOnUse" spreadMethod="reflect"><stop offset="0" stop-color="#6dc7ff"/><stop offset="1" stop-color="#e6abff"/></linearGradient><path fill="url(#e)" d="M8.946 30.576c0 .947-.876 1.72-1.97 1.72H3.963c-1.086 0-1.971-.767-1.971-1.72 0-.947.884-1.72 1.971-1.72h3.019c1.087 0 1.963.773 1.963 1.72z" style="fill:url(#e);stroke-width:.692677"/><linearGradient id="f" x1="39" x2="39" y1="28" y2="36" gradientTransform="matrix(.74496 0 0 .64407 .255 9.966)" gradientUnits="userSpaceOnUse" spreadMethod="reflect"><stop offset="0" stop-color="#1a6dff"/><stop offset="1" stop-color="#c822ff"/></linearGradient><path fill="url(#f)" d="M33.033 32.294H28.36c-1.019 0-1.844-.767-1.844-1.716s.826-1.719 1.844-1.719h3.743l.931-.859h-4.655c-1.543 0-2.794 1.154-2.794 2.576 0 1.423 1.251 2.577 2.794 2.577h3.724z" style="fill:url(#f);stroke-width:.692677"/><linearGradient id="g" x1="59" x2="59" y1="28" y2="36" gradientTransform="matrix(.74496 0 0 .64407 .255 9.966)" gradientUnits="userSpaceOnUse" spreadMethod="reflect"><stop offset="0" stop-color="#1a6dff"/><stop offset="1" stop-color="#c822ff"/></linearGradient><path fill="url(#g)" d="M47.932 30.147H41.48c.207-.74.92-1.288 1.78-1.288h3.742l.93-.859h-4.655c-1.543 0-2.794 1.154-2.794 2.576 0 1.423 1.251 2.577 2.794 2.577h3.724l.931-.859h-4.674c-.86 0-1.574-.548-1.78-1.288H47z" style="fill:url(#g);stroke-width:.692677"/></svg>